<svg width="330" height="53" viewBox="0 0 330 53" fill="none" xmlns="http://www.w3.org/2000/svg">
<path d="M20.306 42.5348H20.2281C18.4104 42.4569 17.969 40.9249 17.0861 37.8608C16.5668 36.121 15.9436 33.732 15.1905 30.7199C14.8789 29.4475 14.5673 28.1751 14.2557 26.9547C13.9441 28.5646 13.6325 30.1226 13.4248 31.369C13.2171 32.4077 13.0353 33.3945 12.8795 34.1994C12.464 36.3028 10.127 36.4845 9.24414 36.5624C8.04966 36.6663 6.38778 36.6403 3.869 36.6403C2.90823 36.6403 3.97287 36.6403 2.77839 36.6403L0.882812 32.4856C2.10325 32.4856 2.93419 32.4597 3.89497 32.4597C5.97231 32.4597 7.84193 32.4856 8.8806 32.4077C8.98447 31.8624 9.08834 31.1873 9.21817 30.59C9.71154 27.9155 10.3607 24.5657 10.906 21.969C11.2176 20.5149 11.4773 19.4243 11.685 18.6453C11.9707 17.5806 12.464 15.8149 14.2817 15.8149C15.2165 15.8149 16.1773 16.4381 16.5149 17.7624C17.0342 19.658 18.6182 26.9287 20.0983 32.5376C21.085 28.3829 22.3055 23.1635 23.2662 19.0867C24.253 14.9061 25.032 11.6083 25.2917 10.5436C25.837 8.33645 27.0314 7.89501 27.9403 7.92098C30.0176 7.97291 30.5629 10.258 31.0563 12.2834C31.4718 14.0492 31.9392 16.49 32.5104 19.3464C32.6922 20.3331 32.8999 21.3978 33.1077 22.4884C33.7568 25.7342 34.0684 27.8116 34.2762 29.1619C34.3021 29.3436 34.3281 29.5254 34.3541 29.7072H43.3905L42.1441 33.9917H33.1077C30.6408 33.9917 30.3552 32.1481 29.9917 29.837C29.7839 28.5127 29.4723 26.4873 28.8491 23.3193C28.6414 22.2287 28.4336 21.1641 28.2259 20.1773C28.0961 19.5282 27.9662 18.8271 27.8364 18.1779C27.6806 18.8011 27.5248 19.4503 27.369 20.1254C24.8502 30.8497 22.7209 39.8342 22.4093 40.9768C22.1756 41.8597 21.2928 42.5348 20.306 42.5348Z" fill="white"/>
<path d="M33.1058 33.9134C30.639 33.9134 30.3533 32.0698 29.9898 29.7587C29.7821 28.4344 29.4705 26.409 28.8473 23.241C28.6395 22.1504 28.4318 21.0858 28.2241 20.0991C28.0942 19.4499 27.9644 18.7488 27.8346 18.0996C27.6788 18.7228 27.523 19.372 27.3672 20.0471C24.8484 30.7714 22.7191 39.756 22.4075 40.8985C22.1218 41.8852 21.2649 42.5344 20.2782 42.5344H20.2003C18.3826 42.4565 17.9412 40.9245 17.0583 37.8604C16.539 36.1206 15.9158 33.7317 15.1627 30.7195C14.8511 29.4471 14.5395 28.1747 14.2279 26.9543C13.9163 28.5642 13.6047 30.1223 13.397 31.3687C13.1893 32.4073 13.0075 33.3941 12.8517 34.1991C12.4362 36.3024 10.0992 36.4841 9.21632 36.562C8.02185 36.6659 6.35997 36.6399 3.84119 36.6399C2.88041 36.6399 3.94505 36.6399 2.75058 36.6399L1.4782 33.8355C1.42627 33.9394 1.45224 34.1212 1.58207 34.4068C2.12737 35.7051 2.80251 36.9515 3.60748 38.1201C4.38649 39.2886 5.29533 40.3532 6.28207 41.3659C7.26881 42.3526 8.35942 43.2615 9.52793 44.0405C10.6964 44.8195 11.9428 45.4946 13.2412 46.0659C14.5395 46.6112 15.9158 47.0526 17.3439 47.3383C18.7721 47.6239 20.2522 47.7797 21.7583 47.7797C23.2644 47.7797 24.7445 47.6239 26.1727 47.3383C27.6009 47.0526 28.9771 46.6112 30.2754 46.0659C31.5738 45.5206 32.8202 44.8455 33.9887 44.0405C35.1572 43.2615 36.2219 42.3526 37.2346 41.3659C38.2213 40.3792 39.1301 39.2886 39.9091 38.1201C40.6882 36.9515 41.3633 35.7051 41.9346 34.4068C42.0125 34.251 42.0644 34.0692 42.1423 33.9134H33.1058Z" fill="#221E1F"/>
<path d="M3.86906 32.4597C5.94641 32.4597 7.81602 32.4856 8.8547 32.4077C8.95856 31.8624 9.06243 31.1873 9.19227 30.5901C9.68564 27.9155 10.3348 24.5657 10.8801 21.9691C11.1917 20.5149 11.4514 19.4243 11.6591 18.6453C11.9448 17.5807 12.4381 15.8149 14.2558 15.8149C15.1906 15.8149 16.1254 16.4381 16.489 17.7624C17.0083 19.658 18.5923 26.9287 20.0724 32.5376C21.0591 28.3829 22.2796 23.1635 23.2403 19.0867C24.2271 14.9061 25.0061 11.6083 25.2657 10.5436C25.8111 8.33646 27.0055 7.89503 27.9144 7.92099C29.9917 7.97293 30.537 10.258 31.0304 12.2834C31.4459 14.0492 31.9133 16.4901 32.4845 19.3464C32.6663 20.3331 32.874 21.3978 33.0818 22.4884C33.7309 25.7343 34.0425 27.8116 34.2503 29.1619C34.2762 29.3436 34.3022 29.5254 34.3282 29.6812H43.3906C43.5983 28.4348 43.7282 27.1624 43.7282 25.8641C43.7282 13.7895 33.9387 4 21.8641 4C9.7895 4 0 13.7895 0 25.8641C0 28.2011 0.363536 30.4343 1.03867 32.5376C2.15525 32.4856 2.96022 32.4597 3.86906 32.4597Z" fill="#221E1F"/>
<path d="M56.4032 11.3228L60.9993 25.2411L65.5954 11.3228H71.1524V29.4477H67.4391L67.7507 15.3217L63.1026 29.4477H59.0778L54.2999 15.1659L54.6894 29.4477H50.8203V11.2969H56.4032V11.3228ZM78.6568 26.6433C77.9037 26.3576 77.3584 25.8643 77.0209 25.1632C76.6833 24.4621 76.5015 23.709 76.4756 22.93C76.4496 22.6184 76.4756 22.3068 76.5015 21.9952C76.5535 21.6836 76.6054 21.372 76.6833 21.0864C76.917 20.3333 77.3584 19.7361 78.0336 19.3206C78.7087 18.9052 79.4358 18.7234 80.1888 18.8013C80.3446 18.8273 80.5004 18.8532 80.6562 18.8792C80.812 18.9052 80.9938 18.9571 81.1236 19.035C81.8247 19.3466 82.3441 19.814 82.6557 20.4891C82.9673 21.1643 83.149 21.8654 83.175 22.5925C83.175 22.93 83.149 23.2676 83.1231 23.5792C83.0711 23.9168 83.0192 24.2024 82.9413 24.514C82.7076 25.319 82.2402 25.9422 81.5391 26.3577C80.838 26.7731 80.085 26.9289 79.28 26.8251C79.1761 26.7991 79.0722 26.7731 78.9684 26.7472C78.8905 26.7212 78.7866 26.6693 78.6568 26.6433ZM84.9148 27.8897C85.564 27.2405 86.0573 26.4875 86.3949 25.5786C86.7325 24.6958 86.8883 23.761 86.8883 22.8262C86.8883 21.8914 86.7325 20.9565 86.3949 20.0737C86.0573 19.1908 85.5899 18.4118 84.9148 17.7626C84.2656 17.1394 83.5126 16.672 82.6037 16.3604C81.6949 16.0488 80.7861 15.893 79.8512 15.893C78.9164 15.893 77.9816 16.0488 77.0728 16.3604C76.164 16.672 75.4109 17.1394 74.7617 17.7626C74.1126 18.4118 73.6192 19.1648 73.2816 20.0737C72.9441 20.9565 72.7883 21.8914 72.7883 22.8262C72.7883 23.761 72.9441 24.6958 73.2816 25.5786C73.6192 26.4615 74.0866 27.2405 74.7617 27.8897C75.4109 28.5129 76.164 28.9803 77.0468 29.2919C77.9297 29.6035 78.8645 29.7593 79.7993 29.7593C80.7341 29.7593 81.6689 29.6035 82.5778 29.2919C83.5126 28.9803 84.2916 28.5129 84.9148 27.8897ZM98.028 26.6173H97.5087C97.3269 26.6173 97.1711 26.6173 96.9894 26.6433C95.6391 26.6693 94.4966 26.5394 93.5358 26.2538C92.575 25.9941 92.0557 24.9554 92.0037 23.1637V22.4107C92.0297 21.9433 92.1336 21.4759 92.2634 21.0085C92.3932 20.5411 92.6529 20.1256 93.0164 19.788C93.2242 19.6063 93.4319 19.4505 93.6916 19.3206C93.9253 19.1908 94.185 19.1129 94.4706 19.0869C94.7822 19.061 95.0678 19.035 95.3535 19.035H97.6126C97.7424 19.035 97.8722 19.035 98.0021 19.009V26.6173H98.028ZM101.508 29.4477V11.2969H98.0021V16.1267L95.0159 16.1527C94.0032 16.1527 93.0424 16.2825 92.1336 16.5422C91.2247 16.8018 90.4457 17.3472 89.7706 18.2041C89.2253 18.9052 88.8358 19.6842 88.6021 20.5411C88.3943 21.398 88.2905 22.2549 88.3164 23.1637C88.4203 25.1112 89.0175 26.6433 90.1341 27.7858C91.2507 28.9024 92.7827 29.4737 94.7822 29.4737H101.508V29.4477ZM104.676 11.3228V29.4477H108.545L108.155 15.1659L112.933 29.4477H116.958L121.58 15.3217L121.294 29.4477H125.008V11.2969H119.477L114.881 25.2151L110.284 11.2969H104.676V11.3228ZM130.954 29.1101C131.837 29.3438 132.746 29.4477 133.681 29.4477H138.796V26.6693L134.148 26.6952C133.135 26.6952 132.33 26.5654 131.785 26.3057C131.24 26.046 130.928 25.3449 130.902 24.1764H138.796V21.398L130.902 21.4239C130.928 20.3074 131.24 19.6063 131.837 19.3466C132.434 19.061 133.213 18.9311 134.174 18.9052H138.796V16.1267L133.681 16.1527C132.746 16.1527 131.837 16.2565 130.954 16.4902C130.071 16.7239 129.292 17.1914 128.617 17.9444C128.098 18.5157 127.708 19.1648 127.474 19.8919C127.241 20.619 127.085 21.372 127.033 22.1251C127.007 22.2549 127.007 22.3588 127.007 22.4626V23.3195C127.059 24.0985 127.215 24.8775 127.448 25.6565C127.682 26.4096 128.072 27.0847 128.617 27.682C129.318 28.409 130.071 28.9024 130.954 29.1101ZM150.325 26.6173H149.806C149.624 26.6173 149.468 26.6173 149.287 26.6433C147.936 26.6693 146.794 26.5394 145.833 26.2538C144.872 25.9941 144.353 24.9554 144.301 23.1637V22.4107C144.327 21.9433 144.431 21.4759 144.561 21.0085C144.69 20.5411 144.95 20.1256 145.314 19.788C145.521 19.6063 145.729 19.4505 145.989 19.3206C146.223 19.1908 146.482 19.1129 146.768 19.0869C147.079 19.061 147.365 19.035 147.651 19.035H149.91C150.04 19.035 150.169 19.035 150.299 19.009V26.6173H150.325ZM153.831 29.4477V11.2969H150.325V16.1267L147.339 16.1527C146.326 16.1527 145.366 16.2825 144.457 16.5422C143.548 16.8018 142.769 17.3472 142.094 18.2041C141.548 18.9052 141.159 19.6842 140.925 20.5411C140.718 21.398 140.614 22.2549 140.64 23.1637C140.744 25.1112 141.341 26.6433 142.457 27.7858C143.574 28.9024 145.106 29.4737 147.105 29.4737H153.831V29.4477Z" fill="#221E1F"/>
<path d="M52.2462 33.8617L53.7263 38.3539L55.2064 33.8617H56.9981V39.7042H55.8037L55.9075 35.16L54.4274 39.7042H53.1291L51.597 35.1081L51.7269 39.7042H50.4805V33.8617H52.2462ZM59.1794 35.9131C59.2313 35.6534 59.3352 35.4457 59.491 35.2639C59.6208 35.0821 59.8285 34.9523 60.0622 34.8484C60.1661 34.8225 60.244 34.7965 60.3479 34.7705C60.4517 34.7446 60.5556 34.7446 60.6595 34.7446C60.7633 34.7446 60.8672 34.7446 60.9711 34.7705C61.0749 34.7965 61.1788 34.8225 61.2567 34.8484C61.5164 34.9263 61.6981 35.0562 61.828 35.2639C61.9578 35.4457 62.0617 35.6794 62.1136 35.9131C62.1396 36.0429 62.1655 36.1987 62.1915 36.3545C62.2175 36.5103 62.2175 36.6401 62.2175 36.7959C62.2175 36.9517 62.2175 37.1075 62.1915 37.2374C62.1655 37.3932 62.1396 37.523 62.1136 37.6788C62.0617 37.9385 61.9578 38.1462 61.828 38.328C61.6981 38.5097 61.4904 38.6396 61.2567 38.7434C61.1528 38.7694 61.0749 38.7954 60.9711 38.8213C60.8672 38.8473 60.7633 38.8473 60.6595 38.8473C60.5556 38.8473 60.4517 38.8473 60.3479 38.8213C60.244 38.7954 60.1401 38.7694 60.0622 38.7434C59.8026 38.6655 59.6208 38.5097 59.491 38.328C59.3611 38.1462 59.2573 37.9385 59.2053 37.6788C59.1794 37.549 59.1534 37.3932 59.1274 37.2374C59.1015 37.0816 59.1015 36.9258 59.1015 36.7959C59.1015 36.6401 59.1015 36.5103 59.1274 36.3545C59.1534 36.1987 59.1534 36.0429 59.1794 35.9131ZM57.933 35.4976C57.881 35.6794 57.8291 35.8871 57.8031 36.1208C57.7772 36.3545 57.7512 36.5622 57.7512 36.7959C57.7512 37.0296 57.7772 37.2374 57.8031 37.4711C57.8291 37.7048 57.881 37.9125 57.933 38.0943C58.0628 38.5357 58.2705 38.8992 58.5562 39.1589C58.8418 39.4186 59.2053 39.6263 59.6468 39.7302C59.8026 39.7562 59.9843 39.8081 60.1401 39.8081C60.2959 39.8341 60.4777 39.8341 60.6335 39.8341C60.8153 39.8341 60.997 39.8341 61.2048 39.8081C61.3865 39.7821 61.5683 39.7562 61.7501 39.7042C62.1915 39.6004 62.5551 39.4186 62.8407 39.1329C63.1263 38.8733 63.3341 38.5097 63.4639 38.0683C63.5158 37.8606 63.5678 37.6528 63.5937 37.4451C63.6197 37.2114 63.6457 37.0037 63.6457 36.77C63.6457 36.5622 63.6197 36.3285 63.5937 36.1208C63.5678 35.9131 63.5158 35.7053 63.4639 35.4976C63.3341 35.0821 63.1263 34.7186 62.8667 34.4589C62.581 34.1992 62.2434 33.9915 61.802 33.8876C61.6202 33.8357 61.4385 33.8097 61.2567 33.7838C61.0749 33.7578 60.8932 33.7578 60.6854 33.7578C60.5037 33.7578 60.3479 33.7578 60.1661 33.7838C59.9843 33.8097 59.8285 33.8357 59.6727 33.8617C59.2313 33.9655 58.8678 34.1733 58.6081 34.433C58.2705 34.7186 58.0628 35.0562 57.933 35.4976ZM66.9694 34.9004H67.0214C67.2031 34.9004 67.3849 34.9263 67.5407 34.9523C67.7225 34.9783 67.8523 35.0821 67.9821 35.2379C68.112 35.3678 68.1899 35.5495 68.2418 35.7313C68.2937 35.9131 68.3197 36.0948 68.3457 36.3026C68.3457 36.3805 68.3716 36.4843 68.3716 36.5622V37.2893C68.3457 37.497 68.3197 37.6788 68.2678 37.8606C68.2158 38.0423 68.1379 38.2241 68.0081 38.3799C67.8783 38.5357 67.7225 38.6136 67.5667 38.6655C67.3849 38.6915 67.2291 38.7175 67.0473 38.7175H65.5672V34.9004H66.9694ZM64.3208 33.8617V39.7042H67.0214C67.3589 39.7042 67.6705 39.6783 67.9821 39.6263C68.2937 39.5744 68.5794 39.4186 68.839 39.2109C69.1506 38.9512 69.3843 38.6136 69.5142 38.2501C69.644 37.8606 69.7219 37.4711 69.7219 37.0816V36.5882C69.67 35.6534 69.4103 34.9783 68.9689 34.5628C68.5274 34.1213 67.8783 33.9136 66.9954 33.9136H64.3208V33.8617ZM72.0589 35.2379C72.2926 35.0042 72.6042 34.8744 73.0716 34.8744H75.0711V33.8617H73.0457C72.1628 33.8617 71.5136 34.0694 71.0722 34.5108C70.6307 34.9523 70.3711 35.6274 70.3191 36.5363V37.0296C70.3191 37.4451 70.397 37.8346 70.5269 38.1981C70.6567 38.5876 70.8904 38.8992 71.202 39.1589C71.4617 39.3667 71.7733 39.5225 72.0589 39.5744C72.3705 39.6263 72.6821 39.6523 73.0197 39.6523H75.097V38.6396H72.9937C72.812 38.6396 72.6302 38.6136 72.4744 38.5876C72.2926 38.5617 72.1628 38.4578 72.0329 38.328C71.9031 38.1722 71.7993 37.9904 71.7473 37.8086C71.6954 37.6269 71.6694 37.4191 71.6694 37.2114H75.0711V36.1987H71.6954C71.7214 35.8092 71.8512 35.4716 72.0589 35.2379ZM78.7843 34.9263C79.07 34.9263 79.3037 34.9523 79.5374 35.0302C79.7711 35.1081 79.8749 35.3158 79.8749 35.6534C79.8749 35.991 79.7711 36.1987 79.5633 36.2766C79.3556 36.3545 79.1219 36.4064 78.8622 36.4064H77.3042V34.9004L78.7843 34.9263ZM76.0838 33.8617V39.7042H77.3042V37.4191H78.7584L80.0307 39.7042H81.407L79.9528 37.2633C80.3683 37.1595 80.654 36.9777 80.8357 36.6661C81.0175 36.3805 81.1213 36.0169 81.1213 35.6015V35.3937C81.0954 35.186 81.0694 35.0042 80.9915 34.7965C80.9136 34.6147 80.8097 34.433 80.6539 34.3031C80.4981 34.1473 80.3164 34.0175 80.0827 33.9655C79.8749 33.9136 79.6412 33.8617 79.4335 33.8617H76.0838ZM82.0821 33.8617V39.7042H83.3285L83.2766 35.2899L85.7694 39.7042H87.1976V33.8617H85.9512L86.0031 38.0683L83.6142 33.8617H82.0821ZM88.3142 39.7042H89.5865V33.8617H88.3142V39.7042ZM95.507 34.9004V33.8617H90.5992V34.9004H93.923L90.5992 38.6655V39.7042H95.507V38.6655H92.2352L95.507 34.9004ZM96.5976 39.7042H97.87V33.8617H96.5976V39.7042ZM99.0125 33.8617V39.7042H100.259L100.207 35.2899L102.7 39.7042H104.128V33.8617H102.882L102.934 38.0683L100.545 33.8617H99.0125ZM107.374 37.2633H109.01V38.6396H107.634C107.062 38.6396 106.673 38.4578 106.517 38.0943C106.335 37.7307 106.257 37.3153 106.257 36.8219C106.257 36.3285 106.335 35.8871 106.517 35.4976C106.699 35.0821 107.062 34.9004 107.634 34.8744H110.256V33.8617H107.634C106.751 33.8617 106.101 34.0694 105.66 34.5108C105.219 34.9523 104.959 35.6274 104.907 36.5363V37.0296C104.907 37.4191 104.985 37.8346 105.115 38.1981C105.245 38.5876 105.478 38.8992 105.79 39.1589C106.05 39.3926 106.361 39.5225 106.673 39.5744C106.984 39.6263 107.322 39.6523 107.634 39.6523H110.256V36.1727H107.374V37.2633ZM114.255 33.8617V39.7042H115.501L115.372 35.1081L116.904 39.7042H118.202L119.682 35.16L119.578 39.7042H120.773V33.8617H118.981L117.501 38.3539L116.021 33.8617H114.255ZM123.317 35.2379C123.525 35.0042 123.863 34.8744 124.33 34.8744H126.33V33.8617H124.304C123.421 33.8617 122.772 34.0694 122.331 34.5108C121.889 34.9523 121.63 35.6274 121.578 36.5363V37.0296C121.578 37.4451 121.656 37.8346 121.785 38.1981C121.915 38.5876 122.149 38.8992 122.461 39.1589C122.72 39.3667 123.032 39.5225 123.317 39.5744C123.629 39.6263 123.941 39.6523 124.278 39.6523H126.356V38.6396H124.304C124.122 38.6396 123.941 38.6136 123.785 38.5876C123.603 38.5617 123.473 38.4578 123.343 38.328C123.214 38.1722 123.11 37.9904 123.058 37.8086C123.006 37.6269 122.98 37.4191 122.98 37.2114H126.382V36.1987H123.006C122.98 35.8092 123.11 35.4716 123.317 35.2379ZM129.991 34.9004H130.043C130.225 34.9004 130.406 34.9263 130.562 34.9523C130.744 34.9783 130.874 35.0821 131.004 35.2379C131.133 35.3678 131.211 35.5495 131.263 35.7313C131.315 35.9131 131.341 36.0948 131.367 36.3026C131.367 36.3805 131.393 36.4843 131.393 36.5622V37.2893C131.367 37.497 131.341 37.6788 131.289 37.8606C131.237 38.0423 131.159 38.2241 131.03 38.3799C130.9 38.5357 130.744 38.6136 130.588 38.6655C130.406 38.6915 130.251 38.7175 130.069 38.7175H128.563V34.9004H129.991ZM127.342 33.8617V39.7042H130.043C130.38 39.7042 130.692 39.6783 131.004 39.6263C131.315 39.5744 131.601 39.4186 131.861 39.2109C132.172 38.9512 132.406 38.6136 132.536 38.2501C132.666 37.8606 132.743 37.4711 132.743 37.0816V36.5882C132.692 35.6534 132.432 34.9783 131.99 34.5628C131.549 34.1213 130.9 33.9136 130.017 33.9136H127.342V33.8617ZM133.522 39.7042H134.795V33.8617H133.522V39.7042ZM137.184 35.4457C137.366 35.0562 137.729 34.8744 138.326 34.8484H140.326V33.8617H138.3C137.417 33.8617 136.768 34.0694 136.327 34.5108C135.885 34.9523 135.626 35.6274 135.574 36.5363V37.0296C135.574 37.4451 135.652 37.8346 135.782 38.1981C135.911 38.5876 136.145 38.8992 136.457 39.1589C136.716 39.3667 137.002 39.5225 137.314 39.5744C137.625 39.6263 137.937 39.6523 138.274 39.6523H140.352V38.6396H138.3C138.119 38.6396 137.937 38.6136 137.781 38.5876C137.599 38.5617 137.469 38.4578 137.34 38.328C137.21 38.1981 137.132 38.0164 137.08 37.8346C137.028 37.6528 137.002 37.4711 136.976 37.2893V36.77C136.924 36.2766 137.028 35.8352 137.184 35.4457ZM141.183 39.7042H142.455V33.8617H141.183V39.7042ZM143.494 33.8617V39.7042H144.74L144.688 35.2899L147.181 39.7042H148.609V33.8617H147.363L147.415 38.0683L145.026 33.8617H143.494ZM151.128 35.2379C151.362 35.0042 151.673 34.8744 152.141 34.8744H154.14V33.8617H152.115C151.232 33.8617 150.583 34.0694 150.141 34.5108C149.7 34.9523 149.44 35.6274 149.388 36.5363V37.0296C149.388 37.4451 149.466 37.8346 149.596 38.1981C149.726 38.5876 149.959 38.8992 150.271 39.1589C150.531 39.3667 150.842 39.5225 151.128 39.5744C151.44 39.6263 151.751 39.6523 152.089 39.6523H154.166V38.6396H152.115C151.933 38.6396 151.751 38.6136 151.595 38.5876C151.414 38.5617 151.284 38.4578 151.154 38.328C151.024 38.1722 150.92 37.9904 150.868 37.8086C150.816 37.6269 150.79 37.4191 150.79 37.2114H154.192V36.1987H150.816C150.79 35.8092 150.894 35.4716 151.128 35.2379Z" fill="#221E1F"/>
</svg>
