<svg width="342" height="53" viewBox="0 0 342 53" fill="none" xmlns="http://www.w3.org/2000/svg">
<g clip-path="url(#clip0_791719_15479)">
<path fill-rule="evenodd" clip-rule="evenodd" d="M2.34296 22.7565C2.34296 21.7882 1.61674 21.5461 0.648438 21.5461V21.0619H9.84516V23.4827H9.36101C9.11894 22.0302 8.63479 21.7882 6.69819 21.7882H4.27744V26.1434H6.45611C7.42441 26.1434 7.90856 26.1434 7.90856 24.6909H8.63479V28.322H7.90856C7.90856 26.8675 7.66649 26.8675 6.45611 26.8675H4.27744V30.2587C4.27744 31.4648 4.76159 31.7111 5.72989 31.7111H6.21404V32.1931H0.648438V31.7111C1.61674 31.7111 2.34296 31.4669 2.34296 30.7407V22.7565ZM25.0916 26.1434V21.7882C25.3337 21.7882 26.0599 21.5461 26.302 21.5461C27.9965 21.5461 28.9648 22.2723 28.9648 23.7226C28.9648 25.4171 27.9965 26.1434 26.0599 26.1434H25.0916ZM23.1572 30.7428C23.1572 31.469 22.673 31.7132 21.4626 31.7132V32.1953H26.7862V31.7132C25.8179 31.7132 25.0916 31.469 25.0916 30.7428V26.8717H26.7862C27.9965 28.8062 29.2069 31.2291 30.1752 32.1953H33.0801V31.7132C31.6277 31.2269 30.9036 30.7428 28.4807 26.3876C30.1752 25.9013 30.9014 25.1772 30.9014 23.7247C30.9014 22.0302 29.4469 21.064 27.5124 21.064H21.4626V21.5482C22.673 21.5482 23.1572 21.7903 23.1572 22.7586V30.7428ZM46.8741 26.3876C46.8741 23.9668 47.8424 21.5461 50.7473 21.5461C52.9239 21.5461 54.8626 23.7226 54.8626 26.8696C54.8626 29.2903 53.8943 31.7111 50.9894 31.7111C48.5687 31.7132 46.8741 29.5303 46.8741 26.3876ZM44.4555 26.6275C44.4555 30.0166 47.1162 32.4373 50.7473 32.4373C54.6184 32.4373 57.0392 29.2904 57.0392 26.6275C57.0392 23.2406 54.6184 20.8199 50.9894 20.8199C47.6004 20.8199 44.4555 22.9985 44.4555 26.6275ZM69.6249 29.5303H70.3512C70.5932 30.987 71.3195 31.9532 73.014 31.9532C74.9506 31.9532 75.1905 30.7428 75.1905 30.0166C75.1905 29.0504 74.7064 28.5641 73.2561 27.598C70.5932 26.3876 70.1091 25.4171 70.1091 23.7226C70.1091 22.2702 71.3195 20.8199 73.2561 20.8199C74.2244 20.8199 75.1905 21.0619 76.161 21.0619V23.2406H75.6768C75.4347 22.2723 74.9506 21.304 73.4981 21.304C72.2878 21.304 71.5615 22.2723 71.5615 23.2406C71.5615 24.2089 71.8036 24.693 73.9823 25.9013C76.403 26.8696 76.8872 27.8379 76.8872 29.2903C76.8872 31.2269 75.1927 32.4373 73.014 32.4373C71.8036 32.4373 70.8353 32.1931 70.1091 31.951L69.6249 29.5303ZM92.8578 21.7882H91.1632C89.7108 21.7882 89.4708 22.0302 89.2266 23.4827H88.5025L88.9867 20.5778H89.4708C89.4708 21.0619 89.955 21.0619 90.4391 21.0619H97.6992C98.1855 21.0619 98.4276 21.0619 98.9096 20.5778H99.3938L99.1517 23.4827H98.4255C98.4255 22.0302 98.1834 21.7882 97.2151 21.7882H94.7944V30.7428C94.7944 31.469 95.5206 31.7132 96.731 31.7132V32.1953H91.1632V31.7132C92.3736 31.7132 92.8578 31.469 92.8578 30.7428V21.7882ZM128.918 21.304C129.403 21.304 129.887 21.5461 129.887 21.7882V22.2723L127.708 24.451C126.982 25.1772 126.498 25.9034 125.771 26.6275C125.529 26.3876 125.529 26.1434 125.529 25.9013C125.532 23.7226 126.982 21.304 128.918 21.304ZM135.697 25.1751C135.697 23.9647 134.244 24.933 134.244 23.4805C134.244 22.5122 134.97 22.0281 135.697 22.0281C136.423 22.0281 137.633 22.5144 137.873 22.9964C137.631 24.933 137.389 26.8696 135.936 28.322C134.968 29.5282 133.032 30.9849 130.369 30.9849C129.158 30.9849 127.948 30.4986 126.98 29.5282C126.738 29.0461 126.253 28.562 126.253 27.8358C126.253 27.1096 126.496 26.6254 126.98 26.1412L128.19 24.6888L129.158 23.7205L133.758 19.3653C134.484 18.6391 135.936 17.1866 135.936 16.4604C135.936 15.7341 135.452 15.25 134.968 15.25C134.484 15.25 134.242 15.7342 134.242 16.2183V17.1866C134.242 18.1549 132.305 19.8494 131.821 20.5757C131.337 20.0915 130.853 19.8494 130.369 19.8494C127.224 19.8494 124.319 23.7205 124.319 26.6254C124.319 30.2587 126.74 32.6773 130.127 32.6773C134.242 32.6773 136.176 30.0144 137.145 28.322C138.113 26.6254 138.355 24.933 138.355 23.4805C138.839 23.9647 139.565 24.6909 140.292 24.6909C141.744 24.6909 143.437 23.2385 143.437 21.786C143.437 21.3019 143.194 20.5757 142.468 20.5757C142.226 20.5757 141.742 21.0598 141.742 21.3019C141.742 22.0281 142.468 22.2702 142.468 22.7543C142.468 23.2385 141.984 23.7226 141.5 23.7226C140.048 23.7226 139.563 20.8199 137.143 20.8199C135.448 20.8199 133.027 22.5144 133.027 24.4489C133.027 25.6592 133.996 26.1412 134.48 26.1412C134.964 26.1412 135.697 25.9013 135.697 25.1751ZM167.644 29.5303H168.126C168.612 30.987 169.336 31.9532 171.029 31.9532C172.726 31.9532 173.21 30.7428 173.21 30.0166C173.21 29.0504 172.483 28.5641 171.029 27.598C168.61 26.3876 167.886 25.4171 167.886 23.7226C167.886 22.2702 169.339 20.8199 171.275 20.8199C172.001 20.8199 173.212 21.0619 173.938 21.0619L174.178 23.2406H173.692C173.452 22.2723 172.965 21.304 171.273 21.304C170.303 21.304 169.336 22.2723 169.336 23.2406C169.336 24.2089 169.823 24.693 171.999 25.9013C174.418 26.8696 174.902 27.8379 174.902 29.2903C174.902 31.2269 173.21 32.4373 170.787 32.4373C169.821 32.4373 168.85 32.1931 167.884 31.951L167.644 29.5303ZM187.972 22.5144C187.972 21.5461 187.006 21.5461 186.28 21.5461V21.0619H191.361V21.5461C190.635 21.5461 189.909 21.5461 189.909 22.5144V28.5641C189.909 30.7407 191.119 31.4669 193.056 31.4669C196.198 31.4669 196.198 29.0483 196.198 26.8696V24.2089C196.198 21.7882 195.958 21.5461 194.262 21.5461V21.0619H198.621V21.5461C197.651 21.5461 197.169 21.7881 197.169 23.2406V27.84C197.169 30.5028 195.958 32.4395 192.569 32.4395C189.667 32.4395 187.97 31.469 187.97 28.8062L187.972 22.5144ZM211.689 22.7565C211.689 21.7882 211.203 21.5461 209.997 21.5461V21.0619H215.318V21.5461C214.352 21.5461 213.626 21.7882 213.626 22.7565V30.2608C213.626 31.2269 214.112 31.4669 215.802 31.4669C217.739 31.4669 218.225 31.2269 219.191 29.2903H219.677L219.191 32.1931H209.997V31.7111C211.203 31.7111 211.689 31.4669 211.689 30.7407V22.7565ZM232.505 22.7565C232.505 21.7882 231.779 21.5461 230.809 21.5461V21.0619H236.134V21.5461C235.164 21.5461 234.438 21.7882 234.438 22.7565V30.2608C234.438 31.2269 234.682 31.4669 236.618 31.4669C238.551 31.4669 239.037 31.2269 240.007 29.2903H240.49L239.763 32.1931H230.809V31.7111C231.779 31.7111 232.505 31.4669 232.505 30.7407V22.7565ZM252.833 22.7565C252.833 21.7882 252.351 21.5461 251.141 21.5461V21.0619H256.466V21.5461C255.496 21.5461 254.77 21.7882 254.77 22.7565V30.7428C254.77 31.469 255.496 31.7132 256.466 31.7132V32.1953H251.141V31.7132C252.351 31.7132 252.833 31.469 252.833 30.7428V22.7565ZM268.808 22.7565C268.564 21.7882 268.322 21.5461 267.356 21.5461V21.0619H272.197V21.5461H271.711C271.225 21.5461 270.985 21.7881 270.985 22.2723V22.7565L274.132 30.0166L276.794 23.2406C276.794 22.9985 277.034 22.5144 277.034 22.2723C277.034 21.5461 276.308 21.5461 275.338 21.5461V21.0619H279.453V21.5461C278.727 21.5461 278.487 21.5461 277.761 22.9985L273.887 32.4395H272.921L268.808 22.7565ZM296.64 27.3538H293.251L294.944 22.7565L296.64 27.3538ZM296.396 32.1931H301.482V31.7111C300.271 31.7111 300.029 31.2248 299.545 30.2587L296.156 20.5757L294.459 21.3019V21.544C294.459 21.786 294.459 22.0281 294.22 22.2702L291.073 30.7407C290.833 31.2269 290.346 31.7111 289.38 31.7111V32.1931H293.495V31.7111H293.255C292.769 31.7111 292.045 31.4669 292.045 30.9849C292.045 30.4986 292.285 29.7745 292.531 29.5282L293.013 28.0757H296.887L297.613 30.2565C297.853 30.7386 297.853 30.7386 297.853 30.9828C297.853 31.4648 297.127 31.709 296.647 31.709H296.402V32.1931H296.396ZM313.579 22.7565C313.579 21.7882 312.127 21.5461 311.887 21.5461V21.0619H314.792L321.81 29.2903V23.2406C321.81 21.7881 321.328 21.5461 320.117 21.5461V21.0619H324.23V21.5461C323.264 21.5461 322.778 21.7882 322.778 22.7565V32.4395H322.292L314.55 23.4827V29.5324C314.55 31.2291 314.79 31.7132 316.486 31.7132V32.1953H311.645V31.7132C313.577 31.7132 313.577 30.7428 313.577 29.0504L313.579 22.7565Z" fill="#1C1C1C"/>
</g>
<defs>
<clipPath id="clip0_791719_15479">
<rect width="341" height="53" fill="white" transform="translate(0.988281)"/>
</clipPath>
</defs>
</svg>
